<svg xmlns="http://www.w3.org/2000/svg" xmlns:xlink="http://www.w3.org/1999/xlink" height="1208.2" version="1.0" viewBox="0 591.8 2880 1208.2" width="2880"><style>@keyframes dash{to{stroke-width:1}}path{stroke-width:0;animation:dash 1s ease-in-out alternate infinite}</style><defs><path d="M0 0h2880v1800H0z" id="a"/></defs><clipPath id="b"><use xmlns:xlink="http://www.w3.org/1999/xlink" overflow="visible" xlink:actuate="onLoad" xlink:href="#a" xlink:show="embed" xlink:type="simple"/></clipPath><g clip-path="url(#b)" fill="none" stroke="currentColor" stroke-miterlimit="10"><path d="M3096.37 1142.62c-142.26-7.53-268.84 88.87-364.47 194.46-95.64 105.59-178.04 227.88-299.59 302.18-103.78 63.43-227.79 86.07-349.35 90.36-264.6 9.32-531.54-64.89-753.36-209.44-180.17-117.4-327.8-277.19-487.1-421.65-174.4-158.15-368.53-301.32-591.75-376.14s-479.97-74.26-683.91 43.36"/><path d="M-433.25 775.78C-307.46 704.76-165.38 670.9-21.3 672.39c93.9.95 188.55 17.02 278.16 45.43 20.71 6.57 41.19 13.75 61.44 21.48 108.5 41.45 210.29 98.91 306.33 165.47 82.51 57.17 160.82 121.08 235.54 187.88 74.15 66.29 145.73 135.99 218.72 203.8 87 80.83 176.02 158.96 275 224.26 143.68 94.42 306.67 159.4 475.92 189.48 90.65 16.11 182.92 22.19 274.76 17.96 120.94-5.55 244-29.66 347.15-93.36 119.86-73.83 201.83-194.1 296.5-298.34 94.66-104.23 219.03-199.67 358.68-194.96" style="animation-delay:.1s"/><path d="M-433.33 785.8c128.08-70.82 269.39-110.24 414.49-112.63 94.61-1.6 190.64 12.76 281.81 40.08 21.06 6.32 41.9 13.27 62.5 20.82 110.43 40.44 214.18 97.72 312.09 164.28 84.14 57.18 164.06 121.23 240.29 188.42 75.64 66.68 148.56 136.99 222.53 205.81 88.16 82.02 177.83 161.91 277.81 228.65 142.89 94.71 305.25 160.35 474.13 189.68a1202 1202 0 0 0 273.88 15.76c120.32-6.82 242.42-32.41 344.96-96.36 118.18-73.37 199.71-191.61 293.4-294.5 93.68-102.88 215.85-197.35 352.89-195.46" style="animation-delay:.2s"/><path d="M-433.42 795.83c130.37-70.62 270.91-115.61 417.03-121.86 95.33-4.15 192.73 8.5 285.46 34.72 21.41 6.06 42.61 12.8 63.57 20.15C445 768.27 550.71 825.38 650.5 891.92c85.77 57.18 167.31 121.38 245.04 188.97 77.13 67.06 151.39 137.99 226.35 207.82 89.31 83.21 179.48 165.09 280.61 233.04 141.88 95.32 303.83 161.29 472.33 189.89 90.3 15.32 181.99 19.74 273 13.56 119.7-8.08 240.85-35.15 342.77-99.37 116.49-72.9 197.58-189.12 290.3-290.66 92.7-101.53 212.67-195.03 347.1-195.96" style="animation-delay:.3s"/><path d="M-433.5 805.86c132.66-70.42 272.43-120.97 419.57-131.1 96.04-6.7 194.82 4.24 289.12 29.36 21.76 5.81 43.31 12.32 64.63 19.49 114.28 38.42 221.96 95.36 323.62 161.89 87.41 57.19 170.55 121.53 249.79 189.51 78.61 67.45 154.22 139 230.16 209.83 90.47 84.4 181.24 168.09 283.42 237.43 141.03 95.69 302.42 162.24 470.53 190.09 90.13 14.92 181.53 18.52 272.11 11.35 119.08-9.35 239.28-37.89 340.57-102.37 114.8-72.44 195.46-186.63 287.2-286.82 91.72-100.17 209.49-192.71 341.31-196.45" style="animation-delay:.4s"/><path d="M-433.59 815.88c134.96-70.22 273.95-126.33 422.12-140.34 96.75-9.25 196.91-.02 292.77 24 22.11 5.56 44.02 11.85 65.7 18.83 116.21 37.41 225.85 94.17 329.38 160.7 89.04 57.2 173.8 121.68 254.53 190.06 80.1 67.84 157.05 140 233.97 211.85 91.62 85.59 183.01 171.09 286.23 241.82 140.19 96.05 301 163.19 468.74 190.3 89.96 14.52 181.07 17.3 271.23 9.15 118.46-10.62 237.55-40.88 338.38-105.37 112.94-72.24 193.33-184.14 284.1-282.98 90.74-98.82 206.31-190.39 335.52-196.95" style="animation-delay:.5s"/><path d="M-433.68 825.91c137.25-70.02 275.47-131.69 424.66-149.57 97.47-11.8 199-4.28 296.42 18.64 22.46 5.3 44.73 11.38 66.76 18.17 118.14 36.4 229.73 92.99 335.14 159.51 90.67 57.2 177.04 121.83 259.28 190.61 81.59 68.23 159.88 141 237.78 213.86 92.78 86.78 184.78 174.09 289.04 246.2 139.35 96.39 299.58 164.14 466.94 190.5 89.79 14.13 180.6 16.07 270.34 6.95 117.85-11.89 235.96-43.66 336.18-108.38 111.22-71.82 191.21-181.65 281-279.14 89.76-97.46 203.13-188.07 329.73-197.45" style="animation-delay:.6s"/><path d="M-433.76 835.93c139.54-69.82 276.98-137.06 427.2-158.81 98.18-14.36 201.1-8.54 300.08 13.28 22.81 5.05 45.43 10.9 67.82 17.5 120.07 35.39 233.62 91.81 340.9 158.32 92.31 57.21 180.28 121.98 264.03 191.15 83.07 68.62 162.71 142.01 241.59 215.87 93.93 87.97 186.55 177.07 291.85 250.59 138.52 96.72 298.17 165.09 465.15 190.71 89.61 13.73 180.14 14.85 269.46 4.75 117.23-13.16 234.36-46.43 333.99-111.38 109.51-71.39 189.09-179.16 277.9-275.3 88.78-96.11 199.95-185.75 323.95-197.95" style="animation-delay:.7s"/><path d="M-433.85 845.96c141.83-69.62 278.5-142.42 429.74-168.05 98.89-16.91 203.19-12.81 303.73 7.92 23.16 4.79 46.14 10.43 68.89 16.84 121.99 34.38 237.51 90.62 346.66 157.13 93.94 57.21 183.53 122.13 268.78 191.7 84.56 69.01 165.54 143.01 245.4 217.89 95.09 89.16 188.33 180.05 294.65 254.98 137.7 97.04 296.75 166.04 463.35 190.91 89.44 13.34 179.68 13.63 268.58 2.54 116.61-14.42 232.77-49.21 331.79-114.38 107.8-70.95 186.96-176.66 274.8-271.47 87.8-94.76 196.77-183.43 318.16-198.45" style="animation-delay:.8s"/><path d="M-433.93 855.98C-289.81 786.56-153.91 708.2-1.65 678.7c99.61-19.46 205.28-17.07 307.38 2.57 23.51 4.54 46.85 9.95 69.95 16.18 123.92 33.37 241.4 89.44 352.42 155.94 95.57 57.22 186.77 122.28 273.53 192.24 86.05 69.4 168.37 144.01 249.22 219.9 96.25 90.35 190.12 183.03 297.46 259.37 136.89 97.36 295.34 166.99 461.55 191.12 89.27 12.94 179.22 12.4 267.69.34 115.99-15.69 231.18-51.97 329.6-117.39 106.1-70.51 184.84-174.17 271.7-267.63 86.82-93.4 193.59-181.11 312.37-198.95" style="animation-delay:.9s"/><path d="M-434.02 866.01C-287.6 796.79-152.48 712.87.81 679.49c100.32-22.01 207.37-21.33 311.03-2.79 23.86 4.29 47.56 9.48 71.02 15.52 125.85 32.36 245.29 88.26 358.18 154.75 97.21 57.22 190.02 122.43 278.27 192.79 87.53 69.79 171.2 145.01 253.03 221.91 97.4 91.54 191.91 185.99 300.27 263.76 136.08 97.66 293.92 167.94 459.76 191.32 89.09 12.54 178.75 11.18 266.81-1.86 115.37-16.96 229.59-54.74 327.41-120.39 104.39-70.06 182.71-171.68 268.6-263.79 85.84-92.05 190.41-178.79 306.58-199.45" style="animation-delay:1s"/><path d="M-434.1 876.03c148.71-69.02 283.06-158.5 437.37-195.76 101.03-24.56 209.46-25.59 314.69-8.15 24.21 4.03 48.26 9 72.08 14.85 127.77 31.35 249.18 87.08 363.94 153.56 98.84 57.23 193.26 122.58 283.02 193.33 89.02 70.18 174.03 146.02 256.84 223.93 98.56 92.73 193.7 188.95 303.08 268.15 135.28 97.95 292.5 168.88 457.96 191.53 88.92 12.15 178.29 9.96 265.93-4.06 114.75-18.23 228-57.5 325.21-123.39 102.69-69.61 180.59-169.19 265.5-259.95 84.86-90.69 187.24-176.47 300.79-199.95" style="animation-delay:1.1s"/><path d="M-434.19 886.06c151-68.82 284.58-163.87 439.91-205 101.75-27.11 211.55-29.85 318.34-13.51 24.56 3.78 48.97 8.53 73.15 14.19 129.7 30.34 253.07 85.89 369.7 152.37 100.47 57.23 196.5 122.73 287.77 193.88 90.51 70.57 176.86 147.02 260.65 225.94 99.71 93.92 195.5 191.9 305.89 272.54 134.48 98.24 291.09 169.83 456.17 191.73 88.75 11.75 177.83 8.74 265.04-6.27 114.14-19.49 226.42-60.25 323.02-126.4 101-69.15 178.46-166.7 262.41-256.11 83.88-89.34 184.06-174.15 295-200.45" style="animation-delay:1.2s"/><path d="M-434.28 896.09c153.29-68.62 286.1-169.23 442.46-214.23 102.46-29.66 213.65-34.11 321.99-18.87 24.9 3.52 49.68 8.06 74.21 13.53 131.63 29.33 256.95 84.71 375.47 151.18 102.11 57.24 199.75 122.88 292.52 194.43 91.99 70.96 179.69 148.02 264.46 227.95 100.87 95.11 197.3 194.85 308.69 276.93 133.69 98.51 289.67 170.78 454.37 191.94 88.57 11.35 177.37 7.51 264.16-8.47 113.52-20.76 224.84-63 320.82-129.4 99.3-68.69 176.34-164.21 259.31-252.27 82.9-87.99 180.88-171.83 289.21-200.95" style="animation-delay:1.3s"/><path d="M-434.36 906.11c155.59-68.42 287.62-174.59 445-223.47 103.17-32.21 215.74-38.37 325.65-24.23 25.25 3.27 50.38 7.58 75.28 12.86 133.54 28.33 260.83 83.53 381.22 150 103.74 57.24 202.99 123.03 297.26 194.97 93.48 71.35 182.52 149.03 268.27 229.97 102.02 96.3 199.11 197.79 311.5 281.32 132.91 98.78 288.25 171.73 452.57 192.14 88.4 10.96 176.9 6.29 263.27-10.67 112.9-22.03 223.26-65.75 318.63-132.4 97.61-68.23 174.21-161.72 256.21-248.43 81.92-86.63 177.7-169.51 283.42-201.45" style="animation-delay:1.4s"/><path d="M-434.45 916.14c157.88-68.22 289.14-179.95 447.54-232.71 103.89-34.76 217.83-42.63 329.3-29.59 25.6 3.02 51.09 7.11 76.34 12.2 135.48 27.31 264.73 82.34 386.99 148.8 105.37 57.25 206.24 123.18 302.01 195.52 94.97 71.74 185.35 150.03 272.09 231.98 103.18 97.49 200.93 200.72 314.31 285.71 132.13 99.04 286.84 172.68 450.78 192.35 88.23 10.56 176.44 5.07 262.39-12.87 112.28-23.3 221.69-68.49 316.43-135.41 95.93-67.75 172.09-159.23 253.11-244.59 80.94-85.28 174.52-167.19 277.63-201.95" style="animation-delay:1.5s"/><path d="M-434.53 926.16c160.17-68.02 290.66-185.32 450.08-241.94 104.6-37.31 219.92-46.89 332.95-34.94 25.95 2.76 51.8 6.63 77.41 11.54 137.41 26.3 268.62 81.16 392.75 147.61 107.01 57.25 209.48 123.33 306.76 196.06 96.45 72.13 188.18 151.03 275.9 233.99 104.33 98.68 202.75 203.64 317.12 290.1 131.36 99.29 285.42 173.63 448.98 192.55 88.05 10.17 175.98 3.84 261.51-15.07 111.66-24.57 220.12-71.22 314.24-138.41 94.25-67.28 169.97-156.74 250.01-240.75 79.96-83.92 171.34-164.87 271.84-202.45" style="animation-delay:1.6s"/><path d="M-434.62 936.19c162.46-67.82 292.17-190.68 452.63-251.18 105.31-39.86 222.01-51.15 336.6-40.3 26.3 2.51 52.5 6.16 78.47 10.88C572.42 680.87 705.59 735.56 831.59 802c108.64 57.26 212.72 123.48 311.51 196.61 97.94 72.52 191.01 152.04 279.71 236 105.49 99.87 204.57 206.56 319.93 294.48 130.59 99.54 284.01 174.58 447.19 192.75 87.88 9.77 175.52 2.62 260.62-17.28 111.04-25.83 218.55-73.95 312.05-141.41 92.57-66.79 167.84-154.25 246.91-236.91 78.98-82.57 168.16-162.56 266.05-202.95" style="animation-delay:1.7s"/><path d="M-434.71 946.21c164.76-67.62 293.69-196.04 455.17-260.42 106.03-42.41 224.1-55.41 340.26-45.66 26.65 2.25 53.21 5.69 79.53 10.21 141.26 24.28 276.4 78.79 404.27 145.23 110.27 57.26 215.97 123.63 316.25 197.16 99.43 72.91 193.84 153.04 283.52 238.02 106.64 101.06 206.4 209.47 322.73 298.87 129.83 99.77 282.59 175.53 445.39 192.96 87.71 9.37 175.05 1.4 259.74-19.48 110.42-27.1 216.99-76.68 309.85-144.42 90.89-66.3 165.72-151.76 243.81-233.07 77.99-81.22 164.98-160.24 260.26-203.45" style="animation-delay:1.8s"/><path d="M-434.79 956.24c167.05-67.42 295.21-201.4 457.71-269.66 106.74-44.96 226.2-59.67 343.91-51.02 27 2 53.92 5.21 80.6 9.55 143.19 23.28 280.29 77.61 410.03 144.04 111.91 57.27 219.21 123.78 321 197.7 100.91 73.3 196.67 154.04 287.33 240.03 107.8 102.25 208.24 212.38 325.54 303.26 129.07 100.01 281.17 176.47 443.6 193.16 87.53 8.98 174.59.17 258.85-21.68 109.81-28.37 215.43-79.39 307.66-147.42 89.22-65.81 163.59-149.27 240.71-229.23 77.01-79.86 161.8-157.92 254.47-203.95" style="animation-delay:1.9s"/><path d="M-434.88 966.26c169.34-67.22 296.73-206.76 460.25-278.89 107.45-47.51 228.29-63.94 347.56-56.38 27.35 1.75 54.63 4.74 81.66 8.89 145.12 22.27 284.18 76.43 415.79 142.85 113.54 57.27 222.46 123.93 325.75 198.25 102.4 73.69 199.5 155.05 291.14 242.04 108.96 103.44 210.08 215.27 328.35 307.65 128.32 100.23 279.76 177.42 441.8 193.37 87.36 8.58 174.13-1.05 257.97-23.88 109.19-29.64 213.88-82.11 305.46-150.42 87.55-65.31 161.47-146.78 237.61-225.4 76.03-78.51 158.62-155.6 248.68-204.45" style="animation-delay:2s"/><path d="M-434.96 976.29c171.63-67.02 298.25-212.13 462.8-288.13 108.17-50.06 230.38-68.2 351.22-61.74 27.7 1.49 55.33 4.26 82.73 8.23 147.05 21.26 288.06 75.25 421.55 141.66 115.17 57.28 225.7 124.07 330.5 198.79 103.89 74.07 202.33 156.05 294.96 244.06 110.11 104.62 211.93 218.16 331.16 312.04 127.58 100.45 278.34 178.37 440 193.57 87.19 8.18 173.67-2.27 257.09-26.09 108.57-30.9 212.33-84.81 303.27-153.43 85.89-64.81 159.34-144.29 234.51-221.56 75.05-77.15 155.44-153.28 242.89-204.95" style="animation-delay:2.1s"/><path d="M-435.05 986.31c173.93-66.82 299.77-217.49 465.34-297.37 108.88-52.61 232.47-72.46 354.87-67.1 28.05 1.24 56.04 3.79 83.79 7.56 148.97 20.25 291.95 74.06 427.32 140.46 116.81 57.29 228.94 124.22 335.24 199.34 105.37 74.46 205.16 157.05 298.77 246.07 111.27 105.81 213.78 221.05 333.96 316.43 126.84 100.67 276.92 179.32 438.21 193.78 87.01 7.79 173.21-3.49 256.2-28.29 107.95-32.17 210.79-87.51 301.07-156.43 84.24-64.3 157.22-141.79 231.41-217.72 74.07-75.8 152.26-150.96 237.1-205.45" style="animation-delay:2.2s"/><path d="M-435.14 996.34c176.22-66.62 301.29-222.85 467.88-306.6 109.59-55.16 234.56-76.72 358.52-72.45 28.4.98 56.75 3.32 84.86 6.9 150.9 19.24 295.84 72.88 433.08 139.27 118.44 57.29 232.19 124.37 339.99 199.88 106.86 74.85 207.99 158.05 302.58 248.08 112.42 107 215.83 223.69 336.77 320.82 126.3 100.63 275.51 180.27 436.41 193.98 86.84 7.39 172.74-4.72 255.32-30.49 107.33-33.44 209.26-90.21 298.88-159.43 82.58-63.79 155.09-139.3 228.31-213.88 73.09-74.45 149.08-148.64 231.31-205.95" style="animation-delay:2.3s"/><path d="M-435.22 1006.37c178.51-66.42 302.81-228.21 470.42-315.84 110.31-57.71 236.65-80.98 362.17-77.81 28.75.73 57.45 2.84 85.92 6.24 152.83 18.23 299.73 71.7 438.84 138.08 120.07 57.3 235.43 124.52 344.74 200.43 108.35 75.24 210.82 159.06 306.39 250.1 113.58 108.19 217.64 226.63 339.58 325.21 125.51 100.91 274.09 181.22 434.62 194.19 86.67 7 172.28-5.94 254.44-32.69 106.71-34.71 207.83-92.76 296.68-162.44 81.03-63.15 152.97-136.81 225.22-210.04 72.11-73.09 145.9-146.32 225.52-206.45" style="animation-delay:2.4s"/><path d="M-435.31 1016.39c180.8-66.22 304.33-233.58 472.97-325.08 111.02-60.26 238.75-85.24 365.83-83.17 29.1.48 58.16 2.37 86.99 5.58 154.75 17.22 303.62 70.51 444.6 136.89 121.71 57.3 238.68 124.67 349.49 200.98 109.83 75.63 213.65 160.06 310.2 252.11 114.73 109.38 219.45 229.57 342.39 329.6 124.72 101.19 272.68 182.17 432.82 194.39 86.49 6.6 171.82-7.16 253.55-34.89 106.1-35.98 206.26-95.5 294.49-165.44 79.34-62.68 150.84-134.32 222.12-206.2 71.13-71.74 142.72-144 219.73-206.95" style="animation-delay:2.5s"/><path d="M-435.39 1026.42C-252.3 960.4-129.55 787.48 40.12 692.1c137.31-77.19 300.85-99.82 457.53-83.62 156.68 16.21 307.51 69.33 450.36 135.7 245.59 114.11 472.32 268.7 668.25 455.64 115.89 110.57 221.26 232.51 345.2 333.99 123.93 101.48 271.26 183.12 431.02 194.6 198.29 14.25 389.82-81.23 544.96-205.54s284.01-278.14 432.96-409.81" style="animation-delay:2.6s"/><path d="M3360.78 1128.59c-86.58 69.93-166.85 147.22-250.74 223.3-59.16 53.66-119.95 106.84-185.15 155.6-11.45 8.56-23.08 16.99-34.89 25.26-150.73 105.56-330.04 184.2-514.41 173.79-160.27-9.02-308.64-83.52-433.82-179.47-124.29-95.26-229.84-212.09-346.1-317.81-196.55-178.75-422.9-327.84-667.07-439.39-142.02-64.89-291.61-117.51-446.61-135.09-100.36-11.39-203.4-7.31-300.45 16.34C128.71 664 77.65 682.69 29.69 707.95c-60.02 31.59-114.34 72.77-167.76 115.73-96.25 77.42-189.8 160.8-305.94 204.07" style="animation-delay:2.7s"/><path d="M3351.17 1144.11c-85.8 62.65-165.92 132.38-250.8 202.53-59.86 49.47-121.79 99.36-188.01 145.48-11.63 8.1-23.44 16.08-35.42 23.92-152.84 100.13-333.36 176.23-518.23 168.64-160.77-6.55-310.12-73.91-436.63-164.34-124.57-89.05-230.38-200.76-347.01-301.64-197.18-170.55-423.15-314.13-665.89-423.13-141.2-63.4-289.53-115.52-442.85-134.48-99.28-12.28-201.03-9.91-296.92 11.04-52.18 11.42-102.65 28.36-150.16 51.67-59.49 29.14-113.55 67.59-166.92 108.1-96.13 73.02-190.43 153.1-304.96 197.17" style="animation-delay:2.8s"/><path d="M3341.56 1159.63c-85.03 55.36-164.99 117.55-250.87 181.75-60.56 45.28-123.62 91.88-190.86 135.35-11.81 7.63-23.8 15.17-35.94 22.59-154.94 94.69-336.69 168.27-522.05 163.49-161.27-4.08-311.52-64.29-439.43-149.21-124.79-82.85-230.92-189.44-347.92-285.46-197.8-162.35-423.4-300.43-664.71-406.88-140.37-61.92-287.46-113.53-439.1-133.86-98.19-13.17-198.67-12.52-293.39 5.74-51.53 9.97-101.4 25.15-148.47 46.52-58.95 26.68-112.77 62.4-166.08 100.46-96.01 68.62-191.07 145.4-303.98 190.28" style="animation-delay:2.9s"/><path d="M3331.94 1175.15c-84.26 48.08-164.05 102.71-250.93 160.97-61.26 41.09-125.45 84.4-193.72 125.23a1846 1846 0 0 1-36.47 21.25c-157.04 89.25-340.02 160.31-525.87 158.35-161.77-1.61-312.85-54.67-442.23-134.08-124.92-76.67-231.45-178.11-348.83-269.29-198.42-154.15-423.65-286.73-663.53-390.62-139.54-60.44-285.39-111.55-435.34-133.26-97.11-14.07-196.3-15.13-289.86.44-50.89 8.51-100.15 21.95-146.78 41.37-58.42 24.23-111.98 57.22-165.25 92.83-95.89 64.22-191.71 137.71-303 183.39" style="animation-delay:3s"/><path d="M3322.33 1190.66c-83.49 40.79-163.12 87.88-251 140.19-61.96 36.9-127.29 76.93-196.58 115.11a2141 2141 0 0 1-37 19.91c-159.14 83.81-343.35 152.35-529.68 153.2-162.27.85-314.1-45.07-445.03-118.95-124.98-70.53-231.99-166.79-349.73-253.12-199.05-145.95-423.89-273.03-662.35-374.37-138.72-58.93-283.32-109.54-431.6-132.62-96.03-14.96-193.93-17.73-286.33-4.86-50.24 7.05-98.9 18.74-145.09 36.21-57.89 21.78-111.2 52.04-164.41 85.2-95.77 59.81-192.34 130.01-302.02 176.5" style="animation-delay:3.1s"/><path d="M3312.72 1206.18c-82.72 33.51-162.18 73.05-251.06 119.42-62.66 32.71-129.12 69.45-199.44 104.98-12.35 6.24-24.87 12.44-37.52 18.58-161.24 78.37-346.68 144.38-533.5 148.05-162.77 3.32-315.28-35.49-447.83-103.82-124.97-64.42-232.53-155.47-350.64-236.94-199.67-137.75-424.14-259.33-661.18-358.11C693.66 840.87 550.3 790.77 403.7 766.31c-94.94-15.85-191.57-20.34-282.79-10.15-49.59 5.59-97.66 15.53-143.4 31.06-57.36 19.33-110.41 46.86-163.57 77.57-95.65 55.41-192.98 122.31-301.04 169.6" style="animation-delay:3.2s"/><path d="M3303.1 1221.7c-81.95 26.23-161.25 58.21-251.13 98.64-63.37 28.52-130.95 61.97-202.3 94.86-12.54 5.77-25.23 11.53-38.05 17.24-163.34 72.94-350.01 136.42-537.32 142.9-163.27 5.79-316.37-25.94-450.63-88.69-124.87-58.36-233.06-144.14-351.55-220.77-200.29-129.55-424.39-245.62-660-341.86-137.06-55.98-279.17-105.58-424.09-131.41-93.86-16.74-189.2-22.94-279.26-15.45-48.95 4.13-96.41 12.33-141.71 25.9-56.82 16.88-109.63 41.67-162.74 69.94-95.53 51.01-193.62 114.61-300.06 162.71" style="animation-delay:3.3s"/><path d="M3293.49 1237.22c-81.17 18.94-160.32 43.38-251.19 77.86-64.07 24.33-132.79 54.5-205.16 84.74-12.72 5.31-25.58 10.62-38.57 15.9-165.44 67.5-353.34 128.46-541.14 137.75-163.77 8.26-317.39-16.44-453.43-73.56-124.7-52.36-233.6-132.82-352.46-204.59-200.92-121.35-424.64-231.92-658.82-325.6-136.23-54.49-277.1-103.59-420.33-130.8-92.77-17.64-186.83-25.55-275.73-20.75-48.3 2.68-95.16 9.12-140.01 20.75-56.29 14.43-108.84 36.49-161.9 62.31-95.41 46.6-194.25 106.91-299.08 155.82" style="animation-delay:3.4s"/><path d="M3283.88 1252.74c-80.4 11.66-159.38 28.55-251.26 57.08-64.77 20.14-134.62 47.02-208.02 74.61-12.9 4.84-25.94 9.71-39.1 14.57-167.54 62.06-356.67 120.49-544.95 132.6-164.27 10.72-318.34-6.99-456.23-58.43-124.47-46.43-234.13-121.49-353.37-188.42-201.54-113.15-424.89-218.22-657.64-309.35-135.4-53.01-275.03-101.6-416.58-130.19-91.69-18.53-184.46-28.15-272.2-26.05-47.65 1.22-93.91 5.91-138.32 15.6-55.76 11.98-108.06 31.31-161.06 54.68-95.29 42.2-194.89 99.21-298.11 148.93" style="animation-delay:3.5s"/><path d="M3274.27 1268.26c-79.63 4.37-158.45 13.71-251.32 36.3-65.47 15.95-136.45 39.54-210.88 64.49-13.08 4.38-26.3 8.8-39.62 13.23-169.65 56.62-360 112.53-548.77 127.45-164.77 13.19-319.21 2.38-459.03-43.3-124.17-40.57-234.67-110.17-354.27-172.24-202.16-104.95-425.13-204.52-656.46-293.09-134.57-51.52-272.96-99.61-412.83-129.58-90.61-19.42-182.1-30.76-268.66-31.35-47-.24-92.67 2.71-136.63 10.44-55.23 9.53-107.27 26.13-160.23 47.05-95.17 37.8-195.53 91.51-297.13 142.03" style="animation-delay:3.6s"/><path d="M3264.65 1283.78c-78.86-2.91-157.52-1.12-251.39 15.53-66.17 11.76-138.29 32.06-213.74 54.37-13.26 3.91-26.65 7.89-40.15 11.9-171.75 51.18-363.32 104.57-552.59 122.3-165.27 15.66-320.03 11.68-461.83-28.17-123.82-34.79-235.21-98.84-355.18-156.07-202.79-96.76-425.38-190.82-655.28-276.84-133.75-50.04-270.88-97.62-409.08-128.96-89.52-20.32-179.73-33.36-265.13-36.65-46.36-1.7-91.42-.5-134.94 5.29-54.7 7.08-106.49 20.94-159.39 39.42-95.05 33.4-196.16 83.81-296.15 135.14" style="animation-delay:3.7s"/><path d="M3255.04 1299.3c-78.09-10.19-156.58-15.95-251.45-5.25-66.88 7.57-140.12 24.59-216.6 44.24a8654 8654 0 0 0-40.68 10.56c-173.85 45.75-366.65 96.61-556.41 117.15-165.77 18.13-320.81 20.88-464.63-13.04-123.42-29.1-235.74-87.52-356.09-139.9-203.41-88.56-425.63-177.11-654.11-260.58-132.92-48.55-268.81-95.63-405.32-128.35-88.44-21.21-177.36-35.97-261.6-41.94-45.71-3.15-90.17-3.71-133.25.13-54.16 4.63-105.7 15.76-158.55 31.79-94.93 28.99-196.8 76.11-295.17 128.25" style="animation-delay:3.8s"/><path d="M3245.43 1314.82c-77.32-17.48-155.65-30.79-251.52-26.03-67.58 3.38-141.95 17.11-219.46 34.12-13.62 2.99-27.37 6.07-41.2 9.22-175.95 40.31-369.98 88.64-560.22 112-166.27 20.59-321.54 29.98-467.43 2.09-122.99-23.51-236.28-76.2-357-123.72-204.03-80.36-425.88-163.41-652.93-244.33-132.09-47.07-266.74-93.64-401.57-127.74-87.35-22.1-174.99-38.57-258.07-47.24-45.06-4.61-88.93-6.91-131.56-5.02-53.63 2.17-104.92 10.58-157.72 24.16-94.81 24.59-197.44 68.41-294.19 121.36" style="animation-delay:3.9s"/><path d="M3235.81 1330.33c-76.54-24.76-154.71-45.62-251.58-46.81-68.28-.81-143.79 9.63-222.32 24-13.8 2.52-27.72 5.16-41.73 7.89-178.05 34.87-373.31 80.68-564.04 106.85-166.77 23.06-322.25 38.97-470.23 17.22-122.54-18.01-236.82-64.87-357.9-107.55-204.66-72.16-426.13-149.71-651.75-228.07-131.26-45.58-264.67-91.66-397.82-127.13-86.27-22.99-172.63-41.18-254.54-52.54-44.42-6.07-87.68-10.12-129.87-10.18-53.1-.28-104.13 5.4-156.88 16.53-94.69 20.19-198.07 60.71-293.21 114.46" style="animation-delay:4s"/><path d="M3226.2 1345.85c-75.77-32.05-153.78-60.45-251.65-67.58-68.98-5-145.62 2.15-225.18 13.87-13.98 2.06-28.08 4.25-42.25 6.55-180.15 29.43-376.64 72.72-567.86 101.7-167.27 25.53-322.95 47.84-473.03 32.35-122.08-12.6-237.35-53.55-358.81-91.37-205.28-63.96-426.38-136.01-650.57-211.82-130.44-44.1-262.59-89.67-394.06-126.51-85.19-23.89-170.26-43.78-251-57.84-43.77-7.53-86.43-13.33-128.17-15.33-52.57-2.73-103.35.21-156.04 8.9-94.57 15.78-198.71 53.02-292.23 107.57" style="animation-delay:4.1s"/><path d="M3216.59 1361.37c-75-39.33-152.85-75.29-251.71-88.36-69.68-9.19-147.45-5.32-228.04 3.75-14.17 1.59-28.44 3.34-42.78 5.21-182.25 23.99-379.97 64.76-571.68 96.55-167.77 28-323.65 56.6-475.83 47.48-121.62-7.28-237.89-42.22-359.72-75.2-205.9-55.76-426.62-122.31-649.39-195.56-129.61-42.62-260.52-87.68-390.31-125.9-84.1-24.78-167.89-46.39-247.47-63.14-43.12-8.99-85.18-16.53-126.48-20.48-52.04-5.18-102.56-4.97-155.21 1.27-94.45 11.38-199.35 45.32-291.25 100.68" style="animation-delay:4.2s"/><path d="M3206.98 1376.89c-74.23-46.61-151.91-90.12-251.78-109.14-70.39-13.38-149.29-12.8-230.9-6.37-14.35 1.13-28.8 2.43-43.31 3.88-184.35 18.56-383.3 56.79-575.49 91.4-168.27 30.46-324.37 65.23-478.63 62.61-121.18-2.06-238.42-30.9-360.63-59.02-206.53-47.56-426.87-108.61-648.21-179.3-128.78-41.13-258.45-85.69-386.56-125.29-83.02-25.67-165.52-48.99-243.94-68.43-42.48-10.44-83.94-19.74-124.79-25.64-51.5-7.63-101.78-10.15-154.37-6.36-94.33 6.98-199.99 37.62-290.28 93.79" style="animation-delay:4.3s"/><path d="M3197.36 1392.41c-73.46-53.9-150.98-104.95-251.84-129.92-71.09-17.57-151.12-20.28-233.76-16.5-14.53.66-29.15 1.52-43.83 2.54-186.46 13.12-386.63 48.83-579.31 86.26-168.77 32.93-325.12 73.74-481.43 77.74-120.77 3.09-238.96-19.57-361.53-42.85-207.15-39.36-427.12-94.9-647.04-163.05-127.95-39.65-256.38-83.7-382.8-124.68-81.93-26.56-163.16-51.6-240.41-73.73-41.83-11.9-82.69-22.95-123.1-30.79-50.97-10.08-100.99-15.33-153.53-13.99-94.21 2.58-200.62 29.92-289.3 86.89" style="animation-delay:4.4s"/><path d="M3187.75 1407.93c-72.69-61.18-150.04-119.79-251.91-150.7-71.79-21.76-152.95-27.76-236.62-26.62-14.71.2-29.51.61-44.36 1.2-188.56 7.68-389.96 40.87-583.13 81.11-169.27 35.4-325.92 82.14-484.23 92.87-120.4 8.16-239.5-8.25-362.44-26.68-207.77-31.16-427.37-81.2-645.86-146.79-127.13-38.16-254.31-81.71-379.05-124.06-80.85-27.46-160.79-54.2-236.87-79.03-41.18-13.36-81.44-26.15-121.41-35.95-50.44-12.53-100.21-20.51-152.7-21.63-94.09-1.83-201.26 22.22-288.32 80" style="animation-delay:4.5s"/><path d="M3178.14 1423.45c-71.91-68.46-149.11-134.62-251.98-171.47-72.49-25.95-154.78-35.23-239.48-36.74-14.89-.27-29.87-.3-44.88-.13-190.66 2.24-393.29 32.91-586.95 75.96-169.77 37.86-326.78 90.44-487.03 108-120.07 13.16-240.03 3.08-363.35-10.5-208.4-22.97-427.62-67.5-644.68-130.54-126.3-36.68-252.23-79.73-375.3-123.45a23639 23639 0 0 1-233.34-84.33c-40.53-14.82-80.19-29.36-119.72-41.1-49.91-14.98-99.42-25.7-151.86-29.26-93.97-6.23-201.9 14.52-287.34 73.11" style="animation-delay:4.6s"/><path d="M3168.52 1438.97c-71.14-75.75-148.18-149.46-252.04-192.25-73.19-30.14-156.62-42.71-242.34-46.87-15.07-.73-30.22-1.21-45.41-1.47-192.76-3.2-396.61 24.94-590.76 70.81-170.27 40.33-327.71 98.63-489.83 123.13-119.8 18.11-240.57 14.4-364.26 5.67-209.02-14.77-427.86-53.8-643.5-114.28-125.47-35.19-250.16-77.74-371.54-122.84-78.68-29.24-156.05-59.41-229.81-89.63-39.89-16.28-78.95-32.57-118.03-46.25-49.37-17.43-98.64-30.88-151.02-36.89-93.85-10.63-202.53 6.82-286.36 66.22" style="animation-delay:4.7s"/><path d="M3158.91 1454.49c-70.37-83.03-147.24-164.29-252.11-213.03-73.9-34.33-158.45-50.19-245.2-56.99-15.25-1.2-30.58-2.12-45.94-2.81-194.86-8.63-399.94 16.98-594.58 65.66-170.77 42.8-328.71 106.73-492.63 138.26-119.59 23-241.11 25.72-365.16 21.85-209.64-6.57-428.11-40.1-642.32-98.03-124.64-33.71-248.09-75.75-367.79-122.23-77.6-30.14-153.69-62.02-226.28-94.93-39.24-17.73-77.7-35.77-116.33-51.41-48.84-19.88-97.85-36.06-150.19-44.52-93.73-15.04-203.17-.88-285.38 59.32" style="animation-delay:4.8s"/><path d="M3149.3 1470.01c-69.6-90.32-146.31-179.12-252.17-233.81-74.6-38.52-160.28-57.66-248.06-67.11-15.43-1.66-30.94-3.03-46.46-4.14-196.96-14.07-403.27 9.02-598.4 60.51-171.27 45.27-329.79 114.76-495.43 153.39-119.44 27.86-241.64 37.05-366.07 38.02-210.27 1.63-428.36-26.39-641.14-81.77-123.82-32.22-246.02-73.76-364.04-121.61C61 1182.45-13.8 1148.86-85.23 1113.26c-38.59-19.19-76.45-38.98-114.64-56.56-48.31-22.34-97.07-41.24-149.35-52.15-93.61-19.44-203.81-8.58-284.4 52.43" style="animation-delay:4.9s"/><path d="M3139.69 1485.52c-68.83-97.6-145.37-193.96-252.24-254.58-75.3-42.72-162.12-65.14-250.92-77.24-15.61-2.13-31.3-3.94-46.99-5.48-199.06-19.51-406.6 1.05-602.22 55.36-171.77 47.73-330.97 122.72-498.24 168.52-119.36 32.68-242.18 48.37-366.98 54.2-210.89 9.83-428.61-12.69-639.97-65.52-122.99-30.74-243.94-71.77-360.29-121-75.43-31.92-148.95-67.23-219.21-105.52-37.95-20.65-75.21-42.19-112.95-61.72-47.78-24.79-96.28-46.43-148.51-59.78-93.49-23.84-204.44-16.28-283.42 45.54" style="animation-delay:5s"/><path d="M3130.07 1501.04c-68.06-104.88-144.44-208.79-252.3-275.36-76-46.91-163.95-72.62-253.78-87.36-15.8-2.59-31.65-4.85-47.51-6.82-201.16-24.95-409.93-6.91-606.03 50.21-172.27 50.2-332.23 130.63-501.04 183.65-119.35 37.49-242.72 59.7-367.89 70.37-211.51 18.03-428.86 1.01-638.79-49.26-122.16-29.25-241.87-69.78-356.53-120.39-74.35-32.81-146.58-69.84-215.68-110.82-37.3-22.11-73.96-45.39-111.26-66.87-47.25-27.24-95.5-51.61-147.68-67.41-93.37-28.24-205.08-23.98-282.45 38.65" style="animation-delay:5.1s"/><path d="M3120.46 1516.56c-67.28-112.17-143.51-223.62-252.37-296.14-90.19-60.08-197.5-89.61-304.68-105.64-203.27-30.39-413.26-14.87-609.85 45.06-172.77 52.67-333.58 138.49-503.84 198.78-514.69 182.26-1112.06 112.93-1571.33-182.36-83.11-53.43-163.16-114.42-256.41-147.06-93.25-32.65-205.72-31.67-281.47 31.75" style="animation-delay:5.2s"/><path d="M-637.39 1088.37c76.4-60.46 188.08-61.66 281.2-31.11 93.07 30.56 173.35 87.81 256.41 137.44 79.85 47.76 163.57 88.62 249.99 122.63 266.38 104.73 559.16 144.26 848.56 118.64 156.34-13.85 311.59-46.61 460.41-98.97 169.92-59.79 331.05-143.22 503.68-193.97a1394 1394 0 0 1 154.2-35.93c149.75-26.05 303.78-27.85 454.18-4.95 106.85 16.27 213.78 45.74 304.21 104.73 109.14 71.2 186.83 180.08 255.83 289.8" style="animation-delay:5.3s"/><path d="M-615.3 1115.77c77.05-57.49 187.95-58.92 280.93-30.47 92.88 28.47 173.4 81.99 256.41 127.82 79.77 44.13 163.1 81.3 248.8 111.76 264.27 93.7 552.66 123.26 839.7 92.76 155.07-16.49 309.56-50.34 458.1-102.27 169.58-59.29 331.04-140.32 503.52-189.15 50.61-14.33 102.05-25.79 153.97-34.38 149.46-24.7 302.99-25.58 452.93-2.32 106.52 16.52 213.08 45.92 303.74 103.83 109.42 69.89 188.57 176.19 259.3 283.45" style="animation-delay:5.4s"/><path d="M-593.2 1143.17c77.69-54.52 187.82-56.17 280.67-29.82 92.7 26.39 173.45 76.16 256.41 118.2 79.69 40.49 162.63 73.98 247.61 100.89 262.15 82.67 546.16 102.27 830.83 66.87 153.8-19.14 307.52-54.07 455.79-105.57 169.25-58.78 331.02-137.42 503.37-184.34 50.57-13.77 101.93-24.71 153.75-32.83 149.18-23.35 302.19-23.3 451.68.32 106.19 16.77 212.38 46.1 303.28 102.93 109.7 68.58 190.31 172.3 262.77 277.11" style="animation-delay:5.5s"/><path d="M-571.11 1170.58c78.34-51.54 187.69-53.43 280.4-29.18 92.51 24.3 173.5 70.34 256.41 108.58 79.61 36.86 162.16 66.66 246.42 90.02 260.04 71.64 539.66 81.27 821.96 40.99 152.54-21.79 305.49-57.8 453.48-108.87 168.91-58.28 331.01-134.53 503.21-179.52 50.53-13.2 101.81-23.63 153.53-31.28 148.9-21.99 301.39-21.02 450.43 2.95 105.86 17.02 211.67 46.28 302.81 102.02 109.98 67.27 192.05 168.41 266.23 270.77" style="animation-delay:5.6s"/><path d="M-549.02 1197.98c78.99-48.57 187.55-50.68 280.13-28.53 92.33 22.22 173.55 64.52 256.41 98.96 79.52 33.23 161.69 59.35 245.23 79.15 257.93 60.61 533.16 60.28 813.1 15.11 151.27-24.44 303.45-61.54 451.17-112.16 168.57-57.78 330.99-131.63 503.05-174.71 50.49-12.64 101.7-22.55 153.3-29.73 148.61-20.64 300.59-18.74 449.18 5.58 105.54 17.27 210.97 46.46 302.34 101.12 110.26 65.96 193.8 164.52 269.7 264.42" style="animation-delay:5.7s"/><path d="M-526.93 1225.38c79.64-45.6 187.42-47.94 279.87-27.89 92.14 20.13 173.6 58.69 256.41 89.34 79.44 29.6 161.21 52.03 244.04 68.27 255.81 49.58 526.66 39.28 804.23-10.78 150.01-27.09 301.41-65.27 448.86-115.46 168.23-57.28 330.98-128.73 502.9-169.89 50.45-12.08 101.58-21.47 153.08-28.18 148.33-19.29 299.79-16.46 447.93 8.21 105.21 17.52 210.27 46.65 301.88 100.22 110.53 64.65 195.54 160.63 273.17 258.08" style="animation-delay:5.8s"/><path d="M-504.84 1252.79c80.29-42.63 187.29-45.2 279.6-27.24 91.96 18.04 173.64 52.87 256.41 79.73 79.36 25.96 160.74 44.71 242.85 57.4 253.7 38.55 520.16 18.29 795.36-36.66 148.74-29.74 299.38-69 446.55-118.76 167.9-56.77 330.97-125.84 502.74-165.08a1498 1498 0 0 1 152.86-26.63c148.04-17.94 299-14.19 446.68 10.85 104.88 17.77 209.57 46.83 301.41 99.32 110.81 63.34 197.28 156.74 276.63 251.74" style="animation-delay:5.9s"/><path d="M-482.75 1280.19c80.93-39.66 187.16-42.45 279.34-26.6 91.78 15.96 173.69 47.05 256.41 70.11 79.28 22.33 160.27 37.39 241.66 46.53 251.59 27.52 513.66-2.71 786.5-62.54 147.48-32.39 297.34-72.73 444.24-122.05 167.56-56.27 330.95-122.94 502.58-160.26 50.36-10.95 101.34-19.31 152.63-25.08 147.76-16.59 298.2-11.91 445.44 13.48 104.55 18.02 208.86 47.01 300.95 98.41 111.09 62.03 199.03 152.85 280.1 245.39" style="animation-delay:6s"/><path d="M-460.65 1307.59c81.58-36.69 187.03-39.71 279.07-25.95 91.59 13.87 173.74 41.22 256.41 60.49 79.2 18.7 159.8 30.07 240.47 35.66 249.47 16.49 507.16-23.7 777.63-88.43 146.21-35.04 295.31-76.46 441.93-125.35 167.22-55.77 330.94-120.04 502.43-155.45 50.32-10.39 101.22-18.23 152.41-23.53 147.48-15.23 297.4-9.63 444.19 16.11 104.22 18.27 208.16 47.19 300.48 97.51 111.37 60.71 200.77 148.96 283.57 239.05" style="animation-delay:6.1s"/><path d="M-438.56 1334.99c82.23-33.72 186.89-36.97 278.8-25.31 91.41 11.79 173.79 35.4 256.41 50.87 79.12 15.07 159.33 22.75 239.28 24.78 247.36 5.46 500.66-44.7 768.76-114.31 144.95-37.69 293.27-80.19 439.62-128.65 166.89-55.27 330.92-117.15 502.27-150.63 50.28-9.83 101.11-17.15 152.19-21.97 147.19-13.88 296.6-7.35 442.94 18.74 103.89 18.52 207.46 47.37 300.01 96.61 111.65 59.4 202.51 145.07 287.03 232.71" style="animation-delay:6.2s"/><path d="M-416.47 1362.4c82.88-30.74 186.76-34.22 278.54-24.66 91.22 9.7 173.84 29.58 256.41 41.25 79.04 11.43 158.85 15.43 238.09 13.91 245.25-5.57 494.16-65.69 759.89-140.19 143.68-40.34 291.24-83.92 437.31-131.95 166.55-54.77 330.91-114.25 502.12-145.82 50.24-9.26 100.99-16.07 151.96-20.42 146.91-12.53 295.8-5.08 441.69 21.37 103.56 18.77 206.76 47.56 299.55 95.7 111.93 58.09 204.26 141.18 290.5 226.36" style="animation-delay:6.3s"/><path d="M-394.38 1389.8c83.52-27.77 186.63-31.48 278.27-24.02 91.04 7.61 173.89 23.76 256.41 31.63 78.95 7.8 158.38 8.12 236.9 3.04 243.13-16.6 487.66-86.69 751.03-166.08 142.42-42.99 289.2-87.65 435-135.24 166.21-54.26 330.89-111.35 501.96-141 50.2-8.7 100.87-14.99 151.74-18.87 146.62-11.18 295.01-2.8 440.44 24.01 103.23 19.02 206.05 47.74 299.08 94.8 112.21 56.78 206 137.29 293.97 220.02" style="animation-delay:6.4s"/><path d="M-372.29 1417.2c84.17-24.8 186.5-28.74 278-23.37 90.85 5.53 173.94 17.93 256.41 22.01 78.87 4.17 157.91.8 235.71-7.83C638.86 1380.37 879 1300.32 1140 1216.04c141.15-45.63 287.16-91.38 432.69-138.54 165.87-53.76 330.88-108.46 501.8-136.19 50.16-8.14 100.75-13.9 151.52-17.32 146.34-9.83 294.21-.52 439.19 26.64 102.9 19.27 205.35 47.92 298.61 93.9 112.49 55.47 207.74 133.4 297.43 213.68" style="animation-delay:6.5s"/><path d="M-350.19 1444.61c84.82-21.83 186.36-25.99 277.74-22.73 90.67 3.44 173.98 12.11 256.41 12.39 78.79.54 157.44-6.52 234.52-18.71 238.91-38.66 474.66-128.68 733.29-217.85 139.89-48.28 285.13-95.11 430.38-141.84 165.54-53.26 330.86-105.56 501.65-131.37 50.11-7.57 100.63-12.82 151.29-15.77 146.06-8.47 293.41 1.76 437.94 29.27 102.58 19.52 204.65 48.1 298.15 93 112.77 54.16 209.49 129.51 300.9 207.33" style="animation-delay:6.6s"/><path d="M-328.1 1472.01c85.47-18.86 186.23-23.25 277.47-22.08 90.49 1.35 174.03 6.29 256.41 2.77 78.71-3.1 156.97-13.84 233.33-29.58 236.79-49.69 468.17-149.68 724.43-243.73 138.62-50.93 283.09-98.84 428.07-145.14 165.2-52.76 330.85-102.66 501.49-126.56 50.07-7.01 100.51-11.74 151.07-14.22 145.77-7.12 292.61 4.04 436.69 31.9 102.25 19.77 203.95 48.28 297.68 92.09 113.05 52.85 211.23 125.61 304.36 200.99" style="animation-delay:6.7s"/><path d="M-306.01 1499.41c86.12-15.89 186.1-20.51 277.2-21.44 90.3-.73 174.08.46 256.41-6.85 78.63-6.73 156.49-21.16 232.14-40.45 234.68-60.72 461.67-170.67 715.56-269.61 137.35-53.58 281.06-102.58 425.76-148.43 164.86-52.25 330.84-99.76 501.33-121.74 50.03-6.45 100.4-10.66 150.84-12.67 145.49-5.77 291.82 6.31 435.44 34.54 101.92 20.02 203.24 48.47 297.21 91.19 113.33 51.54 212.97 121.72 307.83 194.65" style="animation-delay:6.8s"/><path d="M-283.92 1526.81c86.76-12.92 185.97-17.76 276.94-20.79 90.12-2.82 174.13-5.36 256.41-16.47 78.55-10.36 156.02-28.48 230.95-51.32 232.57-71.75 455.17-191.67 706.69-295.5 136.09-56.23 279.02-106.31 423.45-151.73 164.52-51.75 330.82-96.87 501.18-116.93 49.99-5.89 100.28-9.58 150.62-11.12 145.21-4.42 291.02 8.59 434.19 37.17 101.59 20.27 202.54 48.65 296.75 90.29 113.6 50.22 214.72 117.83 311.3 188.31" style="animation-delay:6.9s"/><path d="M-261.83 1554.22c87.41-9.94 185.83-15.02 276.67-20.15 89.93-4.9 174.18-11.18 256.41-26.09 78.47-13.99 155.55-35.8 229.76-62.2 230.45-82.78 448.67-212.66 697.82-321.38 134.82-58.88 276.98-110.04 421.14-155.03 164.19-51.25 330.81-93.97 501.02-112.11 49.95-5.32 100.16-8.5 150.4-9.57 144.92-3.07 290.22 10.87 432.94 39.8 101.26 20.52 201.84 48.83 296.28 89.39 113.88 48.91 216.46 113.94 314.76 181.96" style="animation-delay:7s"/><path d="M-239.74 1581.62c88.06-6.97 185.7-12.28 276.41-19.5 89.75-6.99 174.23-17.01 256.42-35.71 78.38-17.63 155.08-43.11 228.57-73.07 228.34-93.81 442.17-233.66 688.96-347.26 133.56-61.53 274.95-113.77 418.83-158.33 163.85-50.75 330.79-91.07 500.86-107.3a1810 1810 0 0 1 150.17-8.02c144.64-1.71 289.42 13.15 431.69 42.43 100.93 20.77 201.13 49.01 295.81 88.48 114.16 47.6 218.2 110.05 318.23 175.62" style="animation-delay:7.1s"/><path d="M-217.64 1609.02c88.71-4 185.57-9.53 276.14-18.86 89.56-9.08 174.28-22.83 256.42-45.33 78.3-21.26 154.61-50.43 227.38-83.94 226.23-104.85 435.67-254.65 680.09-373.15 132.29-64.18 272.91-117.5 416.52-161.62 163.51-50.25 330.78-88.18 500.71-102.48 49.86-4.2 99.92-6.34 149.95-6.47 144.35-.36 288.62 15.43 430.44 45.07 100.6 21.02 200.43 49.19 295.35 87.58 114.44 46.29 219.95 106.16 321.7 169.28" style="animation-delay:7.2s"/><path d="M-195.55 1636.43c89.36-1.03 185.44-6.79 275.87-18.21 89.38-11.16 174.33-28.65 256.42-54.95 78.22-24.89 154.13-57.75 226.19-94.81 224.11-115.88 429.17-275.65 671.22-399.03 131.03-66.83 270.88-121.23 414.21-164.92 163.17-49.74 330.76-85.28 500.55-97.67 49.82-3.63 99.81-5.26 149.73-4.92 144.07.99 287.83 17.7 429.19 47.7 100.27 21.27 199.73 49.38 294.88 86.68 114.72 44.98 221.69 102.27 325.16 162.93" style="animation-delay:7.3s"/><path d="M-173.46 1663.83c90 1.94 185.31-4.05 275.61-17.57 89.2-13.25 174.37-34.47 256.42-64.57 78.14-28.52 153.66-65.07 225-105.68 222-126.91 422.67-296.64 662.36-424.92 129.76-69.48 268.84-124.96 411.9-168.22 162.84-49.24 330.75-82.38 500.39-92.85 49.78-3.07 99.69-4.18 149.5-3.37 143.79 2.34 287.03 19.98 427.95 50.33 99.94 21.52 199.03 49.56 294.41 85.77 115 43.67 223.43 98.38 328.63 156.59" style="animation-delay:7.4s"/><path d="M-151.37 1691.23c90.65 4.91 185.17-1.3 275.34-16.92 89.01-15.34 174.42-40.3 256.42-74.19 78.06-32.16 153.19-72.39 223.81-116.56 219.88-137.94 416.17-317.64 653.49-450.8 128.5-72.12 266.8-128.69 409.59-171.51 162.5-48.74 330.73-79.49 500.24-88.04 49.74-2.51 99.57-3.09 149.28-1.82 143.5 3.69 286.23 22.26 426.7 52.96 99.62 21.77 198.32 49.74 293.95 84.87 115.28 42.36 225.18 94.49 332.1 150.25" style="animation-delay:7.5s"/><path d="M-129.28 1718.63c91.3 7.88 185.04 1.44 275.07-16.28 88.83-17.42 174.47-46.12 256.42-83.81 77.98-35.79 152.72-79.71 222.62-127.43 217.77-148.97 409.67-338.63 644.62-476.68 127.23-74.77 264.77-132.42 407.28-174.81 162.16-48.24 330.72-76.59 500.08-83.22 49.7-1.95 99.45-2.01 149.06-.27 143.22 5.05 285.43 24.54 425.45 55.6 99.29 22.02 197.62 49.92 293.48 83.97 115.56 41.05 226.92 90.6 335.56 143.9" style="animation-delay:7.6s"/><path d="M-107.19 1746.04c91.95 10.85 184.91 4.18 274.81-15.63 88.64-19.51 174.52-51.94 256.42-93.43 77.9-39.42 152.25-87.03 221.43-138.3 215.66-160 403.17-359.63 635.75-502.57 125.97-77.42 262.73-136.15 404.97-178.11 161.82-47.73 330.7-73.69 499.93-78.41 49.65-1.38 99.33-.93 148.83 1.28 142.94 6.4 284.63 26.82 424.2 58.23 98.96 22.27 196.92 50.1 293.01 83.07 115.84 39.73 228.66 86.71 339.03 137.56" style="animation-delay:7.7s"/><path d="M-85.09 1773.44c270.59 40.4 537.65-96.19 751.19-267.21s396.67-380.62 626.89-528.45c308.18-197.88 685.34-272.03 1051.04-252.16s721.75 129.07 1057.99 274.24" style="animation-delay:7.8s"/></g></svg>
